<svg xmlns="http://www.w3.org/2000/svg" xmlns:xlink="http://www.w3.org/1999/xlink" version="1.1" width="1000" height="1000" viewBox="0 0 1000 1000" xml:space="preserve">
<desc>Created with Fabric.js 3.5.0</desc>
<defs>
</defs>
<rect x="0" y="0" width="100%" height="100%" fill="#ffffff"/>
<g transform="matrix(1.9291 0 0 1.9291 497.948 497.948)" id="880292">
<g style="" vector-effect="non-scaling-stroke">
		<g transform="matrix(1 0 0 1 -0.8872 -6.9601)" id="_1">
<path style="stroke: none; stroke-width: 1; stroke-dasharray: none; stroke-linecap: butt; stroke-dashoffset: 0; stroke-linejoin: miter; stroke-miterlimit: 4; is-custom-font: none; font-file-url: none; fill: rgb(0,0,0); fill-rule: nonzero; opacity: 1;" transform=" translate(-255.1128, -249.0399)" d="M 348.73 450.06 a 198.63 198.63 0 0 1 -46.4 -5.85 c -52.43 -12.65 -106.42 -44.74 -152 -90.36 s -77.71 -99.62 -90.36 -152 C 46.65 146.75 56.15 99.61 86.69 69.07 l 8.72 -8.72 a 42.2 42.2 0 0 1 59.62 0 l 50.11 50.1 a 42.18 42.18 0 0 1 0 59.62 l -29.6 29.59 c 14.19 24.9 33.49 49.82 56.3 72.63 s 47.75 42.12 72.64 56.31 L 334.07 299 a 42.15 42.15 0 0 1 59.62 0 l 50.1 50.1 a 42.16 42.16 0 0 1 0 59.61 l -8.73 8.72 C 413.53 439 383.73 450.06 348.73 450.06 Z M 125.22 78 a 12 12 0 0 0 -8.59 3.56 l -8.73 8.72 c -22.87 22.87 -29.55 60 -18.81 104.49 c 11.37 47.13 40.64 96.1 82.41 137.86 s 90.73 71 137.87 82.41 c 44.5 10.74 81.61 4.06 104.48 -18.81 l 8.72 -8.72 a 12.16 12.16 0 0 0 0 -17.19 l -50.09 -50.1 a 12.16 12.16 0 0 0 -17.19 0 l -37.51 37.51 a 15 15 0 0 1 -17.5 2.72 c -30.75 -15.9 -61.75 -39.05 -89.65 -66.95 s -51 -58.88 -66.94 -89.63 a 15 15 0 0 1 2.71 -17.5 l 37.52 -37.51 a 12.16 12.16 0 0 0 0 -17.19 l -50.1 -50.11 A 12.07 12.07 0 0 0 125.22 78 Z" stroke-linecap="round"/>
</g>
		<g transform="matrix(1 0 0 1 51.625 -58.4)" id="_1">
<path style="stroke: none; stroke-width: 1; stroke-dasharray: none; stroke-linecap: butt; stroke-dashoffset: 0; stroke-linejoin: miter; stroke-miterlimit: 4; is-custom-font: none; font-file-url: none; fill: rgb(0,0,0); fill-rule: nonzero; opacity: 1;" transform=" translate(-307.625, -197.6)" d="M 364.75 269.73 a 15 15 0 0 1 -15 -15 a 99.37 99.37 0 0 0 -99.25 -99.26 a 15 15 0 0 1 0 -30 c 71.27 0 129.25 58 129.25 129.26 A 15 15 0 0 1 364.75 269.73 Z" stroke-linecap="round"/>
</g>
		<g transform="matrix(1 0 0 1 83.325 -90.1)" id="_1">
<path style="stroke: none; stroke-width: 1; stroke-dasharray: none; stroke-linecap: butt; stroke-dashoffset: 0; stroke-linejoin: miter; stroke-miterlimit: 4; is-custom-font: none; font-file-url: none; fill: rgb(0,0,0); fill-rule: nonzero; opacity: 1;" transform=" translate(-339.325, -165.9)" d="M 428.15 269.73 a 15 15 0 0 1 -15 -15 c 0 -89.69 -73 -162.66 -162.65 -162.66 a 15 15 0 0 1 0 -30 c 106.23 0 192.65 86.43 192.65 192.66 A 15 15 0 0 1 428.15 269.73 Z" stroke-linecap="round"/>
</g>
</g>
</g>
</svg>